{
    "asset" : {
        "generator" : "Khronos glTF Blender I/O v1.7.33",
        "version" : "2.0"
    },
    "scene" : 0,
    "scenes" : [
        {
            "name" : "Scene",
            "nodes" : [
                0
            ]
        }
    ],
    "nodes" : [
        {
            "mesh" : 0,
            "name" : "Gear",
            "translation" : [
                0.009999999776482582,
                0,
                0
            ]
        }
    ],
    "materials" : [
        {
            "doubleSided" : true,
            "name" : "Material.001",
            "pbrMetallicRoughness" : {
                "metallicFactor" : 0,
                "roughnessFactor" : 0
            }
        }
    ],
    "meshes" : [
        {
            "name" : "Gear",
            "primitives" : [
                {
                    "attributes" : {
                        "POSITION" : 0,
                        "NORMAL" : 1,
                        "TEXCOORD_0" : 2
                    },
                    "indices" : 3,
                    "material" : 0
                }
            ]
        }
    ],
    "accessors" : [
        {
            "bufferView" : 0,
            "componentType" : 5126,
            "count" : 3034,
            "max" : [
                9.151288032531738,
                9.153961181640625,
                1.7299998998641968
            ],
            "min" : [
                -9.151288032531738,
                -9.153961181640625,
                -1.7299998998641968
            ],
            "type" : "VEC3"
        },
        {
            "bufferView" : 1,
            "componentType" : 5126,
            "count" : 3034,
            "type" : "VEC3"
        },
        {
            "bufferView" : 2,
            "componentType" : 5126,
            "count" : 3034,
            "type" : "VEC2"
        },
        {
            "bufferView" : 3,
            "componentType" : 5123,
            "count" : 4896,
            "type" : "SCALAR"
        }
    ],
    "bufferViews" : [
        {
            "buffer" : 0,
            "byteLength" : 36408,
            "byteOffset" : 0
        },
        {
            "buffer" : 0,
            "byteLength" : 36408,
            "byteOffset" : 36408
        },
        {
            "buffer" : 0,
            "byteLength" : 24272,
            "byteOffset" : 72816
        },
        {
            "buffer" : 0,
            "byteLength" : 9792,
            "byteOffset" : 97088
        }
    ],
    "buffers" : [
        {
            "byteLength" : 106880,
            "uri" : "gear.bin"
        }
    ]
}
