{
    "asset" : {
        "generator" : "Khronos glTF Blender I/O v1.7.33",
        "version" : "2.0"
    },
    "scene" : 0,
    "scenes" : [
        {
            "name" : "Scene",
            "nodes" : [
                5
            ]
        }
    ],
    "nodes" : [
        {
            "mesh" : 0,
            "name" : "crate002_Material #51_0",
            "scale" : [
                0.023000000044703484,
                0.019999999552965164,
                0.023000000044703484
            ]
        },
        {
            "children" : [
                0
            ],
            "name" : "Object_4"
        },
        {
            "children" : [
                1
            ],
            "name" : "crate002",
            "rotation" : [
                -0.5000000596046448,
                -0.5,
                0.4999999701976776,
                0.5
            ]
        },
        {
            "children" : [
                2
            ],
            "name" : "RootNode"
        },
        {
            "children" : [
                3
            ],
            "name" : "9d111f7aa7d344d78f66f155b759a9a0.fbx",
            "rotation" : [
                0.7071068286895752,
                0,
                0,
                0.7071068286895752
            ]
        },
        {
            "children" : [
                4
            ],
            "name" : "Sketchfab_model",
            "rotation" : [
                -0.7071068286895752,
                0,
                0,
                0.7071068286895752
            ]
        }
    ],
    "materials" : [
        {
            "doubleSided" : true,
            "name" : "Material_51",
            "pbrMetallicRoughness" : {
                "baseColorTexture" : {
                    "index" : 0
                },
                "metallicFactor" : 0,
                "roughnessFactor" : 0
            }
        }
    ],
    "meshes" : [
        {
            "name" : "crate002_Material #51_0.001",
            "primitives" : [
                {
                    "attributes" : {
                        "POSITION" : 0,
                        "NORMAL" : 1,
                        "TEXCOORD_0" : 2,
                        "TEXCOORD_1" : 3
                    },
                    "indices" : 4,
                    "material" : 0
                }
            ]
        }
    ],
    "textures" : [
        {
            "sampler" : 0,
            "source" : 0
        }
    ],
    "images" : [
        {
            "mimeType" : "image/png",
            "name" : "Material_51_baseColor",
            "uri" : "textures/Material_51_baseColor.png"
        }
    ],
    "accessors" : [
        {
            "bufferView" : 0,
            "componentType" : 5126,
            "count" : 410,
            "max" : [
                30.003341674804688,
                34.859718322753906,
                30.02311134338379
            ],
            "min" : [
                -30.153860092163086,
                -35.148555755615234,
                -29.995325088500977
            ],
            "type" : "VEC3"
        },
        {
            "bufferView" : 1,
            "componentType" : 5126,
            "count" : 410,
            "type" : "VEC3"
        },
        {
            "bufferView" : 2,
            "componentType" : 5126,
            "count" : 410,
            "type" : "VEC2"
        },
        {
            "bufferView" : 3,
            "componentType" : 5126,
            "count" : 410,
            "type" : "VEC2"
        },
        {
            "bufferView" : 4,
            "componentType" : 5123,
            "count" : 654,
            "type" : "SCALAR"
        }
    ],
    "bufferViews" : [
        {
            "buffer" : 0,
            "byteLength" : 4920,
            "byteOffset" : 0
        },
        {
            "buffer" : 0,
            "byteLength" : 4920,
            "byteOffset" : 4920
        },
        {
            "buffer" : 0,
            "byteLength" : 3280,
            "byteOffset" : 9840
        },
        {
            "buffer" : 0,
            "byteLength" : 3280,
            "byteOffset" : 13120
        },
        {
            "buffer" : 0,
            "byteLength" : 1308,
            "byteOffset" : 16400
        }
    ],
    "samplers" : [
        {
            "magFilter" : 9729,
            "minFilter" : 9987
        }
    ],
    "buffers" : [
        {
            "byteLength" : 17708,
            "uri" : "example.bin"
        }
    ]
}
