{
    "asset" : {
        "generator" : "Khronos glTF Blender I/O v1.7.33",
        "version" : "2.0"
    },
    "scene" : 0,
    "scenes" : [
        {
            "name" : "roblox",
            "nodes" : [
                0,
                7,
                8
            ]
        }
    ],
    "nodes" : [
        {
            "name" : "CameraPreset",
            "translation" : [
                0,
                2.5821216106414795,
                0
            ]
        },
        {
            "mesh" : 0,
            "name" : "Model4"
        },
        {
            "mesh" : 1,
            "name" : "Model5"
        },
        {
            "mesh" : 2,
            "name" : "Model6"
        },
        {
            "mesh" : 3,
            "name" : "Model7"
        },
        {
            "mesh" : 4,
            "name" : "Model8"
        },
        {
            "mesh" : 5,
            "name" : "Model9"
        },
        {
            "children" : [
                1,
                2,
                3,
                4,
                5,
                6
            ],
            "name" : "vecto",
            "scale" : [
                2.628668785095215,
                2.628668785095215,
                2.628668785095215
            ],
            "translation" : [
                0,
                -2.8036136627197266,
                0
            ]
        },
        {
            "name" : "LightPreset",
            "scale" : [
                2.628668785095215,
                2.628668785095215,
                2.628668785095215
            ],
            "translation" : [
                0,
                3.983928680419922,
                0
            ]
        }
    ],
    "animations" : [
        {
            "channels" : [
                {
                    "sampler" : 0,
                    "target" : {
                        "node" : 0,
                        "path" : "scale"
                    }
                },
                {
                    "sampler" : 1,
                    "target" : {
                        "node" : 0,
                        "path" : "translation"
                    }
                },
                {
                    "sampler" : 2,
                    "target" : {
                        "node" : 0,
                        "path" : "rotation"
                    }
                }
            ],
            "name" : "CameraPresetAction",
            "samplers" : [
                {
                    "input" : 27,
                    "interpolation" : "LINEAR",
                    "output" : 28
                },
                {
                    "input" : 27,
                    "interpolation" : "LINEAR",
                    "output" : 29
                },
                {
                    "input" : 30,
                    "interpolation" : "LINEAR",
                    "output" : 31
                }
            ]
        }
    ],
    "materials" : [
        {
            "doubleSided" : true,
            "name" : "Material.001",
            "pbrMetallicRoughness" : {
                "baseColorFactor" : [
                    0.019403284415602684,
                    0.8000000715255737,
                    0,
                    1
                ],
                "metallicFactor" : 0,
                "roughnessFactor" : 0
            }
        },
        {
            "doubleSided" : true,
            "name" : "Material",
            "pbrMetallicRoughness" : {
                "baseColorFactor" : [
                    0,
                    0,
                    0,
                    1
                ],
                "metallicFactor" : 0
            }
        },
        {
            "doubleSided" : true,
            "name" : "spotify",
            "pbrMetallicRoughness" : {
                "baseColorTexture" : {
                    "index" : 0
                },
                "metallicFactor" : 0,
                "roughnessFactor" : 0
            }
        }
    ],
    "meshes" : [
        {
            "name" : "Model4",
            "primitives" : [
                {
                    "attributes" : {
                        "POSITION" : 0,
                        "NORMAL" : 1,
                        "TEXCOORD_0" : 2
                    },
                    "indices" : 3,
                    "material" : 0
                }
            ]
        },
        {
            "name" : "Model5",
            "primitives" : [
                {
                    "attributes" : {
                        "POSITION" : 4,
                        "NORMAL" : 5,
                        "TEXCOORD_0" : 6
                    },
                    "indices" : 7,
                    "material" : 0
                }
            ]
        },
        {
            "name" : "Model6",
            "primitives" : [
                {
                    "attributes" : {
                        "POSITION" : 8,
                        "NORMAL" : 9,
                        "TEXCOORD_0" : 10
                    },
                    "indices" : 11,
                    "material" : 0
                }
            ]
        },
        {
            "name" : "Model7",
            "primitives" : [
                {
                    "attributes" : {
                        "POSITION" : 12,
                        "NORMAL" : 13,
                        "TEXCOORD_0" : 14
                    },
                    "indices" : 7,
                    "material" : 0
                }
            ]
        },
        {
            "name" : "Model8",
            "primitives" : [
                {
                    "attributes" : {
                        "POSITION" : 15,
                        "NORMAL" : 16,
                        "TEXCOORD_0" : 17
                    },
                    "indices" : 18,
                    "material" : 1
                },
                {
                    "attributes" : {
                        "POSITION" : 19,
                        "NORMAL" : 20,
                        "TEXCOORD_0" : 21
                    },
                    "indices" : 22,
                    "material" : 2
                }
            ]
        },
        {
            "name" : "Model9",
            "primitives" : [
                {
                    "attributes" : {
                        "POSITION" : 23,
                        "NORMAL" : 24,
                        "TEXCOORD_0" : 25
                    },
                    "indices" : 26,
                    "material" : 0
                }
            ]
        }
    ],
    "textures" : [
        {
            "sampler" : 0,
            "source" : 0
        }
    ],
    "images" : [
        {
            "mimeType" : "image/png",
            "name" : "baseColor",
            "uri" : "baseColor.png"
        }
    ],
    "accessors" : [
        {
            "bufferView" : 0,
            "componentType" : 5126,
            "count" : 64,
            "max" : [
                1,
                2.0315101146698,
                0.5
            ],
            "min" : [
                0,
                0.03151300176978111,
                -0.5
            ],
            "type" : "VEC3"
        },
        {
            "bufferView" : 1,
            "componentType" : 5126,
            "count" : 64,
            "type" : "VEC3"
        },
        {
            "bufferView" : 2,
            "componentType" : 5126,
            "count" : 64,
            "type" : "VEC2"
        },
        {
            "bufferView" : 3,
            "componentType" : 5123,
            "count" : 132,
            "type" : "SCALAR"
        },
        {
            "bufferView" : 4,
            "componentType" : 5126,
            "count" : 42,
            "max" : [
                0,
                2.0315101146698,
                0.5
            ],
            "min" : [
                -1,
                0.03151300176978111,
                -0.5
            ],
            "type" : "VEC3"
        },
        {
            "bufferView" : 5,
            "componentType" : 5126,
            "count" : 42,
            "type" : "VEC3"
        },
        {
            "bufferView" : 6,
            "componentType" : 5126,
            "count" : 42,
            "type" : "VEC2"
        },
        {
            "bufferView" : 7,
            "componentType" : 5123,
            "count" : 132,
            "type" : "SCALAR"
        },
        {
            "bufferView" : 8,
            "componentType" : 5126,
            "count" : 42,
            "max" : [
                2,
                4.031509876251221,
                0.5
            ],
            "min" : [
                1,
                2.0315101146698,
                -0.5
            ],
            "type" : "VEC3"
        },
        {
            "bufferView" : 9,
            "componentType" : 5126,
            "count" : 42,
            "type" : "VEC3"
        },
        {
            "bufferView" : 10,
            "componentType" : 5126,
            "count" : 42,
            "type" : "VEC2"
        },
        {
            "bufferView" : 11,
            "componentType" : 5123,
            "count" : 132,
            "type" : "SCALAR"
        },
        {
            "bufferView" : 12,
            "componentType" : 5126,
            "count" : 42,
            "max" : [
                -1,
                4.031509876251221,
                0.5
            ],
            "min" : [
                -2,
                2.0315101146698,
                -0.5
            ],
            "type" : "VEC3"
        },
        {
            "bufferView" : 13,
            "componentType" : 5126,
            "count" : 42,
            "type" : "VEC3"
        },
        {
            "bufferView" : 14,
            "componentType" : 5126,
            "count" : 42,
            "type" : "VEC2"
        },
        {
            "bufferView" : 15,
            "componentType" : 5126,
            "count" : 42,
            "max" : [
                1,
                4.031509876251221,
                0.5
            ],
            "min" : [
                -1,
                2.0315101146698,
                -0.5
            ],
            "type" : "VEC3"
        },
        {
            "bufferView" : 16,
            "componentType" : 5126,
            "count" : 42,
            "type" : "VEC3"
        },
        {
            "bufferView" : 17,
            "componentType" : 5126,
            "count" : 42,
            "type" : "VEC2"
        },
        {
            "bufferView" : 18,
            "componentType" : 5123,
            "count" : 126,
            "type" : "SCALAR"
        },
        {
            "bufferView" : 19,
            "componentType" : 5126,
            "count" : 4,
            "max" : [
                0.9350001215934753,
                3.9665098190307617,
                0.5
            ],
            "min" : [
                -0.9350001215934753,
                2.0965096950531006,
                0.5
            ],
            "type" : "VEC3"
        },
        {
            "bufferView" : 20,
            "componentType" : 5126,
            "count" : 4,
            "type" : "VEC3"
        },
        {
            "bufferView" : 21,
            "componentType" : 5126,
            "count" : 4,
            "type" : "VEC2"
        },
        {
            "bufferView" : 22,
            "componentType" : 5123,
            "count" : 6,
            "type" : "SCALAR"
        },
        {
            "bufferView" : 23,
            "componentType" : 5126,
            "count" : 517,
            "max" : [
                0.598924994468689,
                5.132730007171631,
                0.598924994468689
            ],
            "min" : [
                -0.598924994468689,
                3.930299997329712,
                -0.598924994468689
            ],
            "type" : "VEC3"
        },
        {
            "bufferView" : 24,
            "componentType" : 5126,
            "count" : 517,
            "type" : "VEC3"
        },
        {
            "bufferView" : 25,
            "componentType" : 5126,
            "count" : 517,
            "type" : "VEC2"
        },
        {
            "bufferView" : 26,
            "componentType" : 5123,
            "count" : 2538,
            "type" : "SCALAR"
        },
        {
            "bufferView" : 27,
            "componentType" : 5126,
            "count" : 2,
            "max" : [
                12.413793103448276
            ],
            "min" : [
                0
            ],
            "type" : "SCALAR"
        },
        {
            "bufferView" : 28,
            "componentType" : 5126,
            "count" : 2,
            "type" : "VEC3"
        },
        {
            "bufferView" : 29,
            "componentType" : 5126,
            "count" : 2,
            "type" : "VEC3"
        },
        {
            "bufferView" : 30,
            "componentType" : 5126,
            "count" : 361,
            "max" : [
                12.413793103448276
            ],
            "min" : [
                0
            ],
            "type" : "SCALAR"
        },
        {
            "bufferView" : 31,
            "componentType" : 5126,
            "count" : 361,
            "type" : "VEC4"
        }
    ],
    "bufferViews" : [
        {
            "buffer" : 0,
            "byteLength" : 768,
            "byteOffset" : 0
        },
        {
            "buffer" : 0,
            "byteLength" : 768,
            "byteOffset" : 768
        },
        {
            "buffer" : 0,
            "byteLength" : 512,
            "byteOffset" : 1536
        },
        {
            "buffer" : 0,
            "byteLength" : 264,
            "byteOffset" : 2048
        },
        {
            "buffer" : 0,
            "byteLength" : 504,
            "byteOffset" : 2312
        },
        {
            "buffer" : 0,
            "byteLength" : 504,
            "byteOffset" : 2816
        },
        {
            "buffer" : 0,
            "byteLength" : 336,
            "byteOffset" : 3320
        },
        {
            "buffer" : 0,
            "byteLength" : 264,
            "byteOffset" : 3656
        },
        {
            "buffer" : 0,
            "byteLength" : 504,
            "byteOffset" : 3920
        },
        {
            "buffer" : 0,
            "byteLength" : 504,
            "byteOffset" : 4424
        },
        {
            "buffer" : 0,
            "byteLength" : 336,
            "byteOffset" : 4928
        },
        {
            "buffer" : 0,
            "byteLength" : 264,
            "byteOffset" : 5264
        },
        {
            "buffer" : 0,
            "byteLength" : 504,
            "byteOffset" : 5528
        },
        {
            "buffer" : 0,
            "byteLength" : 504,
            "byteOffset" : 6032
        },
        {
            "buffer" : 0,
            "byteLength" : 336,
            "byteOffset" : 6536
        },
        {
            "buffer" : 0,
            "byteLength" : 504,
            "byteOffset" : 6872
        },
        {
            "buffer" : 0,
            "byteLength" : 504,
            "byteOffset" : 7376
        },
        {
            "buffer" : 0,
            "byteLength" : 336,
            "byteOffset" : 7880
        },
        {
            "buffer" : 0,
            "byteLength" : 252,
            "byteOffset" : 8216
        },
        {
            "buffer" : 0,
            "byteLength" : 48,
            "byteOffset" : 8468
        },
        {
            "buffer" : 0,
            "byteLength" : 48,
            "byteOffset" : 8516
        },
        {
            "buffer" : 0,
            "byteLength" : 32,
            "byteOffset" : 8564
        },
        {
            "buffer" : 0,
            "byteLength" : 12,
            "byteOffset" : 8596
        },
        {
            "buffer" : 0,
            "byteLength" : 6204,
            "byteOffset" : 8608
        },
        {
            "buffer" : 0,
            "byteLength" : 6204,
            "byteOffset" : 14812
        },
        {
            "buffer" : 0,
            "byteLength" : 4136,
            "byteOffset" : 21016
        },
        {
            "buffer" : 0,
            "byteLength" : 5076,
            "byteOffset" : 25152
        },
        {
            "buffer" : 0,
            "byteLength" : 8,
            "byteOffset" : 30228
        },
        {
            "buffer" : 0,
            "byteLength" : 24,
            "byteOffset" : 30236
        },
        {
            "buffer" : 0,
            "byteLength" : 24,
            "byteOffset" : 30260
        },
        {
            "buffer" : 0,
            "byteLength" : 1444,
            "byteOffset" : 30284
        },
        {
            "buffer" : 0,
            "byteLength" : 5776,
            "byteOffset" : 31728
        }
    ],
    "samplers" : [
        {
            "magFilter" : 9729,
            "minFilter" : 9987
        }
    ],
    "buffers" : [
        {
            "byteLength" : 37504,
            "uri" : "roblox.bin"
        }
    ]
}
